<?xml version="1.0" standalone="no"?>
<!DOCTYPE svg PUBLIC "-//W3C//DTD SVG 20010904//EN"
 "http://www.w3.org/TR/2001/REC-SVG-20010904/DTD/svg10.dtd">
<svg version="1.0" xmlns="http://www.w3.org/2000/svg"
 width="159.000000pt" height="159.000000pt" viewBox="0 0 159.000000 159.000000"
 preserveAspectRatio="xMidYMid meet">
<metadata>
Created by potrace 1.14, written by Peter Selinger 2001-2017
</metadata>
<g transform="translate(0.000000,159.000000) scale(0.100000,-0.100000)"
fill="#000000" stroke="none">
<path d="M114 1567 c-15 -8 -14 -73 1 -192 2 -16 7 -66 10 -110 3 -44 8 -93
10 -110 2 -16 6 -66 10 -110 3 -44 8 -93 10 -110 2 -16 6 -64 9 -105 6 -76 12
-145 21 -235 2 -27 7 -79 10 -115 3 -36 7 -85 10 -110 2 -25 7 -76 10 -115 10
-116 8 -113 46 -121 68 -15 74 -16 149 -35 25 -6 54 -12 65 -15 11 -2 44 -9
72 -15 29 -5 54 -10 55 -9 2 1 15 -3 29 -8 14 -6 42 -13 61 -16 19 -3 46 -10
60 -15 17 -6 46 -5 90 4 36 8 76 16 89 19 13 3 33 7 44 10 63 15 221 51 288
66 43 9 82 21 88 27 10 10 14 38 24 143 2 30 7 82 10 115 10 119 17 191 20
226 2 20 7 70 10 110 7 99 13 164 19 224 3 28 8 82 11 120 3 39 7 93 10 120 2
28 7 75 10 105 3 30 8 82 11 115 14 156 16 145 -14 145 -421 5 -1337 3 -1348
-3z"/>
</g>
</svg>
